<svg width="38" height="78" viewBox="0 0 38 78" fill="none" xmlns="http://www.w3.org/2000/svg">
<path d="M30.5082 52.8472H7.19183C4.41607 52.8472 2.19547 50.6266 2.19547 47.8508V6.76956C2.19547 3.9938 4.41607 1.77319 7.19183 1.77319H30.5082C33.284 1.77319 35.5046 3.9938 35.5046 6.76956V47.8508C35.5046 50.6266 33.284 52.8472 30.5082 52.8472Z" stroke="white" stroke-width="3" stroke-miterlimit="10"/>
<path d="M23.2903 52.8471H14.4079V67.6141H23.2903V52.8471Z" stroke="white" stroke-width="3" stroke-miterlimit="10"/>
<path d="M18.8499 26.2005C23.1423 26.2005 26.622 22.7208 26.622 18.4284C26.622 14.136 23.1423 10.6563 18.8499 10.6563C14.5574 10.6563 11.0777 14.136 11.0777 18.4284C11.0777 22.7208 14.5574 26.2005 18.8499 26.2005Z" stroke="white" stroke-width="3" stroke-miterlimit="10"/>
<path d="M18.8496 43.5213C21.4866 43.5213 23.6243 41.3836 23.6243 38.7466C23.6243 36.1097 21.4866 33.972 18.8496 33.972C16.2126 33.972 14.075 36.1097 14.075 38.7466C14.075 41.3836 16.2126 43.5213 18.8496 43.5213Z" stroke="white" stroke-width="3" stroke-miterlimit="10"/>
<path d="M2.08337 75.3862V72.0553C2.08337 69.6127 4.08192 67.6141 6.52459 67.6141H31.1733C33.616 67.6141 35.6145 69.6127 35.6145 72.0553V75.3862C35.6145 76.0524 35.1704 76.4965 34.5042 76.4965H3.19368C2.5275 76.4965 2.08337 76.0524 2.08337 75.3862Z" stroke="white" stroke-width="3" stroke-miterlimit="10"/>
</svg>
