<svg width="40" height="42" viewBox="0 0 40 42" fill="none" xmlns="http://www.w3.org/2000/svg">
<g filter="url(#filter0_ddd)">
<path fill-rule="evenodd" clip-rule="evenodd" d="M20 38C29.9411 38 38 29.9411 38 20C38 10.0589 29.9411 2 20 2C10.0589 2 2 10.0589 2 20C2 29.9411 10.0589 38 20 38Z" fill="#4CB5AB"/>
<path d="M37.85 20C37.85 29.8583 29.8583 37.85 20 37.85C10.1417 37.85 2.15 29.8583 2.15 20C2.15 10.1417 10.1417 2.15 20 2.15C29.8583 2.15 37.85 10.1417 37.85 20Z" stroke="#4CB5AB" stroke-width="0.3"/>
<path d="M37.85 20C37.85 29.8583 29.8583 37.85 20 37.85C10.1417 37.85 2.15 29.8583 2.15 20C2.15 10.1417 10.1417 2.15 20 2.15C29.8583 2.15 37.85 10.1417 37.85 20Z" stroke="url(#paint0_linear)" stroke-width="0.3"/>
<path d="M37.85 20C37.85 29.8583 29.8583 37.85 20 37.85C10.1417 37.85 2.15 29.8583 2.15 20C2.15 10.1417 10.1417 2.15 20 2.15C29.8583 2.15 37.85 10.1417 37.85 20Z" stroke="#009688" stroke-opacity="0.12" stroke-width="0.3"/>
</g>
<path fill-rule="evenodd" clip-rule="evenodd" d="M27.1 19.8V15.8H29.1V21.8H13.9L17.5 25.4L16.1 26.8L10.1 20.8L16.1 14.8L17.5 16.2L13.9 19.8H27.1Z" fill="white"/>
<defs>
<filter id="filter0_ddd" x="0" y="0" width="40" height="42" filterUnits="userSpaceOnUse" color-interpolation-filters="sRGB">
<feFlood flood-opacity="0" result="BackgroundImageFix"/>
<feColorMatrix in="SourceAlpha" type="matrix" values="0 0 0 0 0 0 0 0 0 0 0 0 0 0 0 0 0 0 127 0"/>
<feOffset/>
<feGaussianBlur stdDeviation="1"/>
<feColorMatrix type="matrix" values="0 0 0 0 0 0 0 0 0 0 0 0 0 0 0 0 0 0 0.12 0"/>
<feBlend mode="normal" in2="BackgroundImageFix" result="effect1_dropShadow"/>
<feColorMatrix in="SourceAlpha" type="matrix" values="0 0 0 0 0 0 0 0 0 0 0 0 0 0 0 0 0 0 127 0"/>
<feOffset dy="2"/>
<feGaussianBlur stdDeviation="1"/>
<feColorMatrix type="matrix" values="0 0 0 0 0 0 0 0 0 0 0 0 0 0 0 0 0 0 0.24 0"/>
<feBlend mode="normal" in2="effect1_dropShadow" result="effect2_dropShadow"/>
<feColorMatrix in="SourceAlpha" type="matrix" values="0 0 0 0 0 0 0 0 0 0 0 0 0 0 0 0 0 0 127 0"/>
<feOffset/>
<feColorMatrix type="matrix" values="0 0 0 0 0 0 0 0 0 0 0 0 0 0 0 0 0 0 0.02 0"/>
<feBlend mode="normal" in2="effect2_dropShadow" result="effect3_dropShadow"/>
<feBlend mode="normal" in="SourceGraphic" in2="effect3_dropShadow" result="shape"/>
</filter>
<linearGradient id="paint0_linear" x1="2" y1="2" x2="2" y2="38" gradientUnits="userSpaceOnUse">
<stop stop-opacity="0"/>
<stop offset="0.8" stop-opacity="0.02"/>
<stop offset="1" stop-opacity="0.04"/>
</linearGradient>
</defs>
</svg>
