<svg width="18" height="20" viewBox="0 0 18 20" fill="none" xmlns="http://www.w3.org/2000/svg">
<path opacity="0.54" fill-rule="evenodd" clip-rule="evenodd" d="M15 14.1364C14.24 14.1364 13.56 14.4376 13.04 14.9095L5.91 10.7428C5.96 10.5119 6 10.281 6 10.04C6 9.79907 5.96 9.56815 5.91 9.33723L12.96 5.21072C13.5 5.71273 14.21 6.02397 15 6.02397C16.66 6.02397 18 4.67859 18 3.01193C18 1.34526 16.66 -0.00012207 15 -0.00012207C13.34 -0.00012207 12 1.34526 12 3.01193C12 3.25289 12.04 3.48381 12.09 3.71474L5.04 7.84124C4.5 7.33924 3.79 7.02799 3 7.02799C1.34 7.02799 0 8.37337 0 10.04C0 11.7067 1.34 13.0521 3 13.0521C3.79 13.0521 4.5 12.7408 5.04 12.2388L12.16 16.4155C12.11 16.6264 12.08 16.8473 12.08 17.0682C12.08 18.6846 13.39 19.9999 15 19.9999C16.61 19.9999 17.92 18.6846 17.92 17.0682C17.92 15.4517 16.61 14.1364 15 14.1364Z" fill="black"/>
</svg>
